<svg width="416" height="416" viewBox="0 0 416 416" fill="none" xmlns="http://www.w3.org/2000/svg">
<mask id="mask0_8845_6923" style="mask-type:alpha" maskUnits="userSpaceOnUse" x="0" y="0" width="416" height="416">
<path d="M208 416C208 301.125 301.125 208 416 208V0H208H0V208C114.875 208 208 301.125 208 416Z" fill="#0C0F12"/>
</mask>
<g mask="url(#mask0_8845_6923)">
<path d="M208 0C208 114.875 114.875 208 0 208C114.875 208 208 301.125 208 416C208 301.125 301.125 208 416 208C301.125 208 208 114.875 208 0Z" fill="#0C0F12"/>
<path opacity="0.2" d="M176.7 215.618C176.7 228.797 184.722 235.037 194.588 229.55C204.483 224.063 212.477 208.921 212.477 195.742C212.477 182.563 204.455 176.323 194.588 181.81C184.694 187.297 176.672 202.439 176.7 215.618Z" fill="url(#paint0_linear_8845_6923)"/>
<path opacity="0.4" d="M203.169 234.929C193.275 240.416 185.281 234.176 185.253 220.997C185.253 207.818 193.275 192.676 203.141 187.189C213.036 181.702 221.03 187.942 221.03 201.121C221.057 214.3 213.036 229.442 203.169 234.929ZM206.244 197.248L202.806 199.157V202.358C202.47 202.573 202.135 202.788 201.799 203.004C200.933 203.568 200.122 204.16 199.368 204.752V225.515C200.318 225.273 201.213 224.924 202.079 224.493C202.331 224.386 202.554 224.278 202.806 224.144V227.344L206.244 225.435V222.207C207.921 221.078 209.234 219.813 210.185 218.415C211.414 216.586 212.029 214.569 212.029 212.31C212.029 211.207 211.834 210.292 211.47 209.62C211.107 208.948 210.408 208.625 209.402 208.679C210.632 207.011 211.247 205.317 211.247 203.595C211.247 202.466 211.079 201.605 210.716 201.04C210.38 200.448 209.905 200.072 209.29 199.964C208.675 199.857 207.921 199.911 207.082 200.206C206.831 200.287 206.551 200.395 206.272 200.502L206.244 197.248Z" fill="white"/>
<path opacity="0.4" d="M204.79 209.996L203.029 210.965V206.312C203.309 206.123 203.616 205.908 203.98 205.72C204.343 205.505 204.678 205.317 204.986 205.128C205.936 204.59 206.663 204.375 207.166 204.456C207.669 204.537 207.893 204.994 207.893 205.854C207.893 206.688 207.641 207.441 207.166 208.114C206.691 208.759 205.908 209.378 204.79 209.996Z" fill="white"/>
<path opacity="0.4" d="M203.029 220.136V214.596L205.293 213.332C206.327 212.767 207.11 212.525 207.669 212.659C208.228 212.767 208.508 213.305 208.508 214.3C208.508 215.403 208.172 216.371 207.501 217.151C206.831 217.931 205.964 218.63 204.874 219.222C204.511 219.437 204.175 219.599 203.868 219.76C203.588 219.894 203.309 220.029 203.029 220.136Z" fill="white"/>
<path opacity="0.3" d="M227.486 60.4282C225.725 61.3965 224.328 63.7633 224.328 65.6998V117.663L208.312 126.565V180.169C208.312 182.105 209.738 182.885 211.47 181.917C213.231 180.948 214.629 178.582 214.629 176.645V130.062L230.645 121.159V62.1496C230.673 60.2399 229.247 59.4331 227.486 60.4282Z" fill="url(#paint1_linear_8845_6923)"/>
<path opacity="0.3" d="M218.766 286.138C217.005 287.106 215.607 286.326 215.607 284.389V245.444L199.563 254.347V228.849C199.563 226.913 200.989 224.546 202.722 223.578C204.483 222.61 205.88 223.39 205.88 225.326V243.804L221.896 234.901V280.866C221.924 282.802 220.499 285.169 218.766 286.138Z" fill="url(#paint2_linear_8845_6923)"/>
<path opacity="0.3" d="M194.141 98.5388C192.38 99.507 190.982 101.874 190.982 103.81V192.217C190.982 194.153 192.408 194.933 194.141 193.965C195.902 192.997 197.299 190.63 197.299 188.694V100.287C197.299 98.3505 195.874 97.5705 194.141 98.5388Z" fill="url(#paint3_linear_8845_6923)"/>
<path d="M212.085 281.673C212.085 286.998 215.327 289.526 219.324 287.294C223.321 285.089 226.564 278.956 226.564 273.631C226.564 268.306 223.321 265.777 219.324 268.01C215.327 270.242 212.085 276.347 212.085 281.673Z" fill="#CDCDCD"/>
<path opacity="0.3" d="M158.895 142.89C160.656 141.922 162.054 142.702 162.054 144.639V170.889L178.069 161.986V194.235C178.069 196.171 176.644 198.538 174.911 199.506C173.15 200.474 171.753 199.694 171.753 197.758V172.53L155.737 181.432V148.162C155.737 146.225 157.134 143.859 158.895 142.89Z" fill="url(#paint4_linear_8845_6923)"/>
<path d="M151.796 152.144C151.796 157.416 155.01 159.89 158.951 157.711C162.892 155.506 166.106 149.481 166.106 144.21C166.106 138.938 162.892 136.464 158.951 138.642C155.01 140.821 151.796 146.899 151.796 152.144Z" fill="#CDCDCD"/>
<path opacity="0.3" d="M128.233 286.407C128.233 284.47 129.659 282.103 131.392 281.135L156.268 267.311V247.273L180.976 233.556C182.737 232.588 184.135 233.368 184.135 235.305C184.135 237.241 182.709 239.608 180.976 240.576L162.585 250.797V270.834L131.42 288.182C129.659 289.15 128.233 288.343 128.233 286.407Z" fill="url(#paint5_linear_8845_6923)"/>
<path opacity="0.3" d="M188.299 315.589C190.06 314.621 191.458 312.254 191.458 310.317V246.574C191.458 244.638 190.032 243.858 188.299 244.826C186.538 245.794 185.141 248.161 185.141 250.097V313.841C185.141 315.75 186.566 316.557 188.299 315.589Z" fill="url(#paint6_linear_8845_6923)"/>
<path d="M124.404 288.72C124.404 294.045 127.646 296.573 131.643 294.341C135.64 292.135 138.882 286.003 138.882 280.678C138.882 275.352 135.64 272.824 131.643 275.057C127.646 277.289 124.404 283.394 124.404 288.72Z" fill="#CDCDCD"/>
<path opacity="0.3" d="M279.223 181.756L233.719 207.038V288.156L279.223 262.874V181.756Z" fill="url(#paint7_linear_8845_6923)"/>
<path opacity="0.15" d="M272.012 233.314L244.899 248.376V251.577L272.012 236.515V233.314Z" fill="white"/>
<path opacity="0.15" d="M269.189 241.223L247.695 253.164V256.365L269.189 244.423V241.223Z" fill="white"/>
<path d="M261.837 255.639L293.505 238.049V247.113L261.837 264.703V255.639Z" fill="#CDCDCD"/>
<path opacity="0.2" d="M246.604 215.133L253.676 220.512L258.427 214.649L264.632 219.813L267.092 218.092L257.952 210.695L253.312 216.559L248.197 212.901L246.604 215.133Z" fill="white"/>
<path d="M241.294 214.999C241.294 218.038 243.138 219.464 245.402 218.2C247.666 216.936 249.511 213.466 249.511 210.427C249.511 207.388 247.666 205.962 245.402 207.226C243.138 208.49 241.294 211.96 241.294 214.999Z" fill="#CDCDCD"/>
<path d="M262.48 220.862C262.48 223.902 264.325 225.327 266.589 224.063C268.853 222.799 270.698 219.329 270.698 216.29C270.698 213.251 268.853 211.825 266.589 213.09C264.325 214.354 262.48 217.823 262.48 220.862Z" fill="#CDCDCD"/>
<path opacity="0.2" d="M122.839 234.795L166.106 210.75V232.428L122.839 256.473V234.795Z" fill="url(#paint8_linear_8845_6923)"/>
<path opacity="0.15" d="M155.038 222.125L142.013 229.36V231.969L155.038 224.734V222.125Z" fill="white"/>
<path opacity="0.15" d="M155.01 227.371L127.283 242.756V245.391L155.01 230.007V227.371Z" fill="white"/>
<path d="M157.302 222.906C157.302 224.681 158.392 225.541 159.762 224.788C161.131 224.035 162.221 221.964 162.221 220.189C162.221 218.414 161.131 217.553 159.762 218.306C158.392 219.06 157.302 221.13 157.302 222.906Z" fill="#CDCDCD"/>
<path opacity="0.2" d="M233.859 168.496L277.127 144.451V166.129L233.859 190.174V168.496Z" fill="url(#paint9_linear_8845_6923)"/>
<path opacity="0.15" d="M266.058 155.828L253.033 163.063V165.672L266.058 158.437V155.828Z" fill="white"/>
<path opacity="0.15" d="M266.03 161.072L238.303 176.457V179.092L266.03 163.708V161.072Z" fill="white"/>
<path d="M268.322 156.607C268.322 158.382 269.412 159.243 270.782 158.489C272.151 157.736 273.241 155.665 273.241 153.89C273.241 152.115 272.151 151.255 270.782 152.008C269.44 152.761 268.322 154.805 268.322 156.607Z" fill="#CDCDCD"/>
</g>
<defs>
<linearGradient id="paint0_linear_8845_6923" x1="190.994" y1="185.976" x2="198.501" y2="230.407" gradientUnits="userSpaceOnUse">
<stop stop-color="white"/>
<stop offset="1" stop-color="white" stop-opacity="0"/>
</linearGradient>
<linearGradient id="paint1_linear_8845_6923" x1="195.74" y1="81.5696" x2="239.009" y2="159.472" gradientUnits="userSpaceOnUse">
<stop stop-color="white"/>
<stop offset="1" stop-color="white" stop-opacity="0"/>
</linearGradient>
<linearGradient id="paint2_linear_8845_6923" x1="228.91" y1="276.977" x2="201.559" y2="227.733" gradientUnits="userSpaceOnUse">
<stop stop-color="white"/>
<stop offset="1" stop-color="white" stop-opacity="0"/>
</linearGradient>
<linearGradient id="paint3_linear_8845_6923" x1="174.253" y1="113.105" x2="211.783" y2="180.676" gradientUnits="userSpaceOnUse">
<stop stop-color="white"/>
<stop offset="1" stop-color="white" stop-opacity="0"/>
</linearGradient>
<linearGradient id="paint4_linear_8845_6923" x1="141.937" y1="130.086" x2="177.688" y2="194.454" gradientUnits="userSpaceOnUse">
<stop stop-color="white"/>
<stop offset="1" stop-color="white" stop-opacity="0"/>
</linearGradient>
<linearGradient id="paint5_linear_8845_6923" x1="117.833" y1="260.87" x2="181.005" y2="260.863" gradientUnits="userSpaceOnUse">
<stop stop-color="white"/>
<stop offset="1" stop-color="white" stop-opacity="0"/>
</linearGradient>
<linearGradient id="paint6_linear_8845_6923" x1="202.656" y1="304.082" x2="175.55" y2="255.348" gradientUnits="userSpaceOnUse">
<stop stop-color="white"/>
<stop offset="1" stop-color="white" stop-opacity="0"/>
</linearGradient>
<linearGradient id="paint7_linear_8845_6923" x1="228.855" y1="188.886" x2="266.966" y2="257.501" gradientUnits="userSpaceOnUse">
<stop stop-color="white"/>
<stop offset="1" stop-color="white" stop-opacity="0"/>
</linearGradient>
<linearGradient id="paint8_linear_8845_6923" x1="139.582" y1="225.484" x2="148.789" y2="242.061" gradientUnits="userSpaceOnUse">
<stop stop-color="white"/>
<stop offset="1" stop-color="white" stop-opacity="0"/>
</linearGradient>
<linearGradient id="paint9_linear_8845_6923" x1="250.611" y1="159.177" x2="259.819" y2="175.755" gradientUnits="userSpaceOnUse">
<stop stop-color="white"/>
<stop offset="1" stop-color="white" stop-opacity="0"/>
</linearGradient>
</defs>
</svg>
