<svg width="1720" height="400" viewBox="0 0 1720 400" fill="none" xmlns="http://www.w3.org/2000/svg">
<path d="M255.282 276.728C254.934 277.752 254.544 278.776 254.156 279.8C253.788 280.824 253.378 281.828 252.968 282.832C252.496 284.02 252.006 285.188 251.514 286.354C240.432 312.1 222.49 334.222 200 350.384C174.786 368.552 143.836 379.224 110.388 379.224C106.066 379.224 101.806 379.04 97.5859 378.692C137.916 375.374 173.844 356.468 199.282 328.018C199.528 327.752 199.774 327.486 199.998 327.22C201.494 325.52 202.948 323.8 204.36 322.038C204.994 321.26 205.61 320.482 206.224 319.682C207.002 318.698 207.76 317.696 208.498 316.672C209.154 315.812 209.788 314.91 210.402 314.03C210.464 313.968 210.524 313.886 210.546 313.824C211.202 312.922 211.816 312.022 212.41 311.12C213.044 310.178 213.68 309.236 214.274 308.272C215.934 305.692 217.51 303.048 219.006 300.366C219.396 299.69 219.764 299.014 220.132 298.318C220.46 297.704 220.788 297.11 221.094 296.496C222.16 294.468 223.162 292.42 224.126 290.352C225.006 288.488 225.826 286.604 226.624 284.698C227.156 283.428 227.668 282.158 228.16 280.868C228.446 280.11 228.734 279.352 229.02 278.574C229.246 278 229.45 277.406 229.654 276.812H251.202C251.878 276.812 252.574 276.812 253.25 276.792C253.864 276.792 254.478 276.772 255.094 276.73H255.278L255.282 276.728Z" fill="white"/>
<path d="M353.62 123.19V174.396C353.62 197.378 346.042 218.598 333.26 235.68C333.158 235.824 333.056 235.966 332.932 236.11C327.442 243.402 320.97 249.916 313.74 255.486C306.366 261.2 298.194 265.912 289.426 269.434C286.436 270.642 283.364 271.708 280.23 272.63C278.776 273.06 277.342 273.45 275.868 273.818C274.168 274.228 272.448 274.616 270.726 274.944C269.292 275.232 267.838 275.476 266.384 275.682C264.212 276.01 262 276.276 259.768 276.44C259.03 276.522 258.272 276.564 257.536 276.604C256.82 276.666 256.122 276.686 255.406 276.728H255.098C254.484 276.77 253.87 276.79 253.254 276.79C252.578 276.81 251.882 276.81 251.206 276.81H200C209.648 276.81 219.07 275.93 228.226 274.208C229.046 274.064 229.886 273.9 230.704 273.736V273.716C231.584 273.532 232.466 273.348 233.326 273.164C234.206 272.98 235.068 272.774 235.948 272.57C236.624 272.406 237.32 272.242 237.996 272.058C239.594 271.668 241.17 271.238 242.748 270.768C243.65 270.522 244.51 270.256 245.39 269.99C247.356 269.376 249.282 268.74 251.208 268.064C252.744 267.51 254.26 266.958 255.756 266.364C256.8 265.974 257.846 265.544 258.87 265.094C260.12 264.602 261.368 264.07 262.598 263.496C263.848 262.964 265.076 262.41 266.284 261.796C268.762 260.628 271.2 259.378 273.596 258.048C274.21 257.74 274.824 257.392 275.44 257.024C276.484 256.45 277.508 255.856 278.532 255.242C278.676 255.16 278.798 255.078 278.922 254.996C280.028 254.34 281.114 253.686 282.178 252.988C283.878 251.922 285.558 250.796 287.216 249.65C294.856 244.406 301.984 238.446 308.538 231.912C330.066 210.406 345.244 182.57 351.02 151.414C352.74 142.258 353.622 132.836 353.622 123.188L353.62 123.19Z" fill="white"/>
<path d="M203.892 225.522H204.076C203.728 226.546 203.338 227.57 202.95 228.594C202.582 229.618 202.172 230.622 201.762 231.626C201.29 232.814 200.8 233.982 200.308 235.148C189.226 260.894 171.284 283.016 148.794 299.178C123.58 317.346 92.6299 328.018 59.1819 328.018C54.8599 328.018 50.5999 327.834 46.3799 327.486C86.7099 324.168 122.638 305.262 148.076 276.812C148.322 276.546 148.568 276.28 148.792 276.014C150.288 274.314 151.742 272.594 153.154 270.832C153.788 270.054 154.404 269.276 155.018 268.476C155.796 267.492 156.554 266.49 157.292 265.466C157.948 264.586 158.582 263.704 159.196 262.824C159.258 262.762 159.318 262.68 159.34 262.618C159.974 261.716 160.59 260.816 161.204 259.914C161.838 258.972 162.454 258.03 163.068 257.066C164.728 254.486 166.304 251.842 167.8 249.16C168.19 248.484 168.558 247.788 168.926 247.112C169.254 246.498 169.582 245.884 169.888 245.29C170.954 243.262 171.956 241.214 172.92 239.146C173.8 237.282 174.62 235.398 175.418 233.492C175.95 232.222 176.462 230.952 176.954 229.662C177.24 228.904 177.528 228.146 177.814 227.368C178.04 226.794 178.244 226.2 178.448 225.606H199.996C200.692 225.606 201.368 225.606 202.044 225.586C202.658 225.586 203.272 225.566 203.888 225.524L203.892 225.522Z" fill="white"/>
<path d="M251.206 20.7759V71.9819C251.206 94.7579 243.77 115.794 231.194 132.796C230.866 133.226 230.538 133.656 230.19 134.106C223.164 143.57 217.204 153.872 212.492 164.83C212.696 167.984 212.8 171.18 212.8 174.396C212.8 175.748 212.78 177.08 212.738 178.432C212.718 179.62 212.676 180.828 212.616 182.016C212.596 182.242 212.596 182.466 212.574 182.672C212.512 183.922 212.43 185.17 212.328 186.4C212.246 187.67 212.124 188.94 212 190.19C211.856 191.664 211.672 193.098 211.488 194.532C211.284 196.028 211.078 197.522 210.832 199.018C210.77 199.448 210.688 199.878 210.628 200.288C210.444 201.312 210.26 202.336 210.054 203.34C209.952 203.954 209.828 204.548 209.706 205.162C209.502 206.206 209.276 207.23 209.03 208.254C208.62 210.138 208.17 212.022 207.658 213.886C206.634 214.336 205.59 214.766 204.544 215.156C204.052 215.34 203.56 215.546 203.07 215.73C202.702 215.874 202.312 216.016 201.922 216.16C201.288 216.406 200.632 216.632 199.996 216.856C198.07 217.532 196.146 218.166 194.178 218.782C193.748 218.926 193.298 219.048 192.868 219.172C192.438 219.316 191.988 219.438 191.536 219.562C190.574 219.848 189.61 220.114 188.648 220.382C188.034 220.546 187.42 220.71 186.784 220.854C186.108 221.038 185.412 221.202 184.736 221.366C183.856 221.57 182.994 221.776 182.114 221.96C181.234 222.164 180.374 222.35 179.492 222.512C180.126 220.628 180.72 218.722 181.254 216.798C181.54 215.836 181.808 214.852 182.052 213.89C182.256 213.214 182.42 212.538 182.584 211.842C182.912 210.572 183.218 209.322 183.486 208.032C183.712 207.048 183.936 206.066 184.122 205.062C184.286 204.344 184.43 203.628 184.552 202.912C184.778 201.744 184.982 200.598 185.166 199.43C185.392 198.078 185.596 196.746 185.76 195.394C185.904 194.39 186.026 193.408 186.15 192.404C186.294 191.216 186.416 190.028 186.518 188.84C186.62 187.918 186.682 186.996 186.764 186.054C186.806 185.296 186.866 184.538 186.908 183.78C186.97 182.858 187.01 181.958 187.052 181.036C187.072 180.606 187.092 180.196 187.092 179.766C187.134 179.028 187.154 178.27 187.154 177.534C187.174 176.49 187.196 175.444 187.196 174.4C187.196 171.922 187.134 169.464 187.012 167.026C175.194 171.778 162.31 174.4 148.792 174.4H97.5859C107.234 174.4 116.656 173.52 125.812 171.798C133.698 170.344 141.378 168.274 148.794 165.654C161.678 161.106 173.762 154.9 184.802 147.24C192.442 141.996 199.57 136.036 206.124 129.502C227.652 107.996 242.83 80.1599 248.606 49.0039C250.326 39.8479 251.208 30.4259 251.208 20.7779L251.206 20.7759Z" fill="white"/>
<path d="M302.414 71.9821V123.188C302.414 145.964 294.978 167 282.402 184.002C282.074 184.432 281.746 184.862 281.398 185.312C274.372 194.776 268.412 205.078 263.7 216.036C263.904 219.19 264.008 222.386 264.008 225.602C264.008 226.954 263.988 228.286 263.946 229.638C263.926 230.826 263.884 232.034 263.824 233.222C263.804 233.448 263.804 233.672 263.782 233.878C263.72 235.128 263.638 236.376 263.536 237.606C263.454 238.876 263.332 240.146 263.208 241.396C263.064 242.87 262.88 244.304 262.696 245.738C262.492 247.234 262.286 248.728 262.04 250.224C261.978 250.654 261.896 251.084 261.836 251.494C261.652 252.518 261.468 253.542 261.262 254.546C261.16 255.16 261.036 255.754 260.914 256.368C260.71 257.412 260.484 258.436 260.238 259.46C259.828 261.344 259.378 263.228 258.866 265.092C257.842 265.542 256.798 265.972 255.752 266.362C254.256 266.956 252.742 267.51 251.204 268.062C249.278 268.738 247.354 269.372 245.386 269.988C244.506 270.254 243.646 270.52 242.744 270.766C241.166 271.238 239.59 271.668 237.992 272.056C237.316 272.24 236.62 272.404 235.944 272.568C235.064 272.772 234.202 272.978 233.322 273.162C232.462 273.346 231.582 273.53 230.7 273.714C231.334 271.83 231.928 269.924 232.462 268C232.748 267.038 233.016 266.054 233.26 265.092C233.464 264.416 233.628 263.74 233.792 263.044C234.12 261.774 234.426 260.524 234.694 259.234C234.92 258.25 235.144 257.268 235.33 256.264C235.494 255.546 235.638 254.83 235.76 254.114C235.986 252.946 236.19 251.8 236.374 250.632C236.6 249.28 236.804 247.948 236.968 246.596C237.112 245.592 237.234 244.61 237.358 243.606C237.502 242.418 237.624 241.23 237.726 240.042C237.828 239.12 237.89 238.198 237.972 237.256C238.014 236.498 238.074 235.74 238.116 234.982C238.178 234.06 238.218 233.16 238.26 232.238C238.28 231.808 238.3 231.398 238.3 230.968C238.342 230.23 238.362 229.472 238.362 228.736C238.382 227.692 238.404 226.646 238.404 225.602C238.404 223.124 238.342 220.666 238.22 218.228C235.23 219.436 232.158 220.502 229.024 221.424C227.57 221.854 226.136 222.244 224.662 222.612C222.962 223.022 221.262 223.41 219.52 223.738C218.188 224.004 216.816 224.23 215.464 224.434C213.19 224.782 210.896 225.048 208.562 225.232C207.824 225.314 207.066 225.356 206.33 225.396C205.614 225.458 204.916 225.478 204.2 225.52H203.892C203.278 225.562 202.664 225.582 202.048 225.582C201.372 225.602 200.696 225.602 200 225.602H148.794C158.442 225.602 167.864 224.722 177.02 223C177.84 222.856 178.68 222.692 179.498 222.528V222.508C180.378 222.344 181.238 222.16 182.12 221.956C183 221.772 183.862 221.566 184.742 221.362C185.418 221.198 186.114 221.034 186.79 220.85C187.404 220.706 188.04 220.542 188.654 220.378C189.616 220.112 190.58 219.846 191.542 219.558C191.992 219.434 192.444 219.312 192.874 219.168C193.304 219.046 193.754 218.922 194.184 218.778C196.15 218.164 198.076 217.528 200.002 216.852C200.636 216.626 201.292 216.402 201.928 216.156C202.318 216.012 202.686 215.87 203.076 215.726C203.568 215.542 204.06 215.358 204.55 215.152C205.594 214.762 206.64 214.332 207.664 213.882C208.914 213.39 210.162 212.858 211.392 212.284C212.642 211.752 213.87 211.198 215.078 210.584C217.556 209.416 219.994 208.166 222.39 206.836C223.004 206.528 223.618 206.18 224.234 205.812C225.278 205.238 226.302 204.644 227.326 204.03C227.47 203.948 227.592 203.866 227.716 203.784C228.822 203.15 229.908 202.474 230.972 201.776C232.672 200.71 234.352 199.584 236.01 198.438C243.65 193.194 250.778 187.234 257.332 180.7C278.86 159.194 294.038 131.358 299.814 100.202C301.534 91.0461 302.416 81.6241 302.416 71.9761L302.414 71.9821Z" fill="white"/>
<path d="M169 72C157.951 72 149 89.9045 149 112C149 89.9045 140.049 72 129 72C140.049 72 149 54.0955 149 32C149 54.0955 157.951 72 169 72Z" fill="white"/>
<path d="M520 277.808V124.384H537.542L545.217 153.315V277.808H520ZM626.351 277.808L534.473 157.918L537.542 124.384L629.421 244.274L626.351 277.808ZM626.351 277.808L618.676 250.849V124.384H643.894V277.808H626.351Z" fill="white"/>
<path d="M717.089 280C708.171 280 700.204 278.027 693.187 274.082C686.316 270.137 680.907 264.731 676.96 257.863C673.16 250.849 671.259 242.813 671.259 233.753V172.603H695.38V232.658C695.38 237.772 696.184 242.155 697.792 245.808C699.546 249.315 702.032 252.018 705.248 253.918C708.61 255.817 712.557 256.767 717.089 256.767C724.106 256.767 729.442 254.721 733.096 250.63C736.897 246.393 738.798 240.402 738.798 232.658V172.603H762.918V233.753C762.918 242.959 760.945 251.068 756.998 258.082C753.197 264.95 747.861 270.356 740.99 274.301C734.12 278.1 726.152 280 717.089 280Z" fill="white"/>
<path d="M787.171 277.808V172.603H811.292V277.808H787.171ZM857.122 277.808V215.123C857.122 208.11 854.929 202.703 850.543 198.904C846.158 194.959 840.749 192.986 834.317 192.986C829.931 192.986 825.984 193.863 822.475 195.616C819.113 197.37 816.409 199.927 814.362 203.288C812.315 206.502 811.292 210.447 811.292 215.123L801.863 209.863C801.863 201.826 803.617 194.886 807.126 189.041C810.634 183.196 815.385 178.667 821.379 175.452C827.373 172.091 834.097 170.411 841.553 170.411C849.008 170.411 855.733 172.018 861.727 175.233C867.72 178.447 872.471 182.977 875.98 188.822C879.488 194.667 881.243 201.68 881.243 209.863V277.808H857.122ZM927.072 277.808V215.123C927.072 208.11 924.88 202.703 920.494 198.904C916.108 194.959 910.699 192.986 904.267 192.986C900.028 192.986 896.154 193.863 892.645 195.616C889.137 197.37 886.359 199.927 884.313 203.288C882.266 206.502 881.243 210.447 881.243 215.123L867.647 209.863C868.378 201.826 870.717 194.886 874.664 189.041C878.611 183.196 883.655 178.667 889.795 175.452C896.081 172.091 902.951 170.411 910.407 170.411C918.009 170.411 924.88 172.018 931.019 175.233C937.159 178.447 942.057 182.977 945.711 188.822C949.366 194.667 951.193 201.68 951.193 209.863V277.808H927.072Z" fill="white"/>
<path d="M1020.12 280C1010.62 280 1001.99 277.589 994.244 272.767C986.643 267.945 980.576 261.443 976.044 253.26C971.658 244.932 969.466 235.653 969.466 225.425C969.466 215.05 971.658 205.772 976.044 197.589C980.576 189.26 986.643 182.685 994.244 177.863C1001.99 172.895 1010.62 170.411 1020.12 170.411C1028.16 170.411 1035.25 172.164 1041.39 175.671C1047.68 179.032 1052.65 183.708 1056.3 189.699C1059.96 195.689 1061.78 202.484 1061.78 210.082V240.329C1061.78 247.927 1059.96 254.721 1056.3 260.712C1052.79 266.703 1047.89 271.452 1041.61 274.959C1035.32 278.32 1028.16 280 1020.12 280ZM1024.07 257.205C1032.98 257.205 1040.15 254.21 1045.56 248.219C1051.11 242.228 1053.89 234.557 1053.89 225.205C1053.89 218.922 1052.65 213.37 1050.16 208.548C1047.68 203.726 1044.17 200 1039.64 197.37C1035.25 194.594 1030.06 193.205 1024.07 193.205C1018.22 193.205 1013.03 194.594 1008.5 197.37C1004.11 200 1000.6 203.726 997.972 208.548C995.487 213.37 994.244 218.922 994.244 225.205C994.244 231.489 995.487 237.041 997.972 241.863C1000.6 246.685 1004.11 250.484 1008.5 253.26C1013.03 255.89 1018.22 257.205 1024.07 257.205ZM1052.35 277.808V249.534L1056.52 223.89L1052.35 198.466V172.603H1076.47V277.808H1052.35Z" fill="white"/>
<path d="M1147.32 280C1137.82 280 1129.19 277.589 1121.44 272.767C1113.84 267.945 1107.78 261.443 1103.24 253.26C1098.86 244.932 1096.67 235.653 1096.67 225.425C1096.67 215.05 1098.86 205.772 1103.24 197.589C1107.78 189.26 1113.84 182.685 1121.44 177.863C1129.19 172.895 1137.82 170.411 1147.32 170.411C1155.36 170.411 1162.45 172.164 1168.59 175.671C1174.88 179.032 1179.85 183.708 1183.5 189.699C1187.16 195.689 1188.98 202.484 1188.98 210.082V240.329C1188.98 247.927 1187.16 254.721 1183.5 260.712C1179.99 266.703 1175.09 271.452 1168.81 274.959C1162.52 278.32 1155.36 280 1147.32 280ZM1151.27 257.205C1157.26 257.205 1162.45 255.89 1166.84 253.26C1171.37 250.484 1174.88 246.685 1177.36 241.863C1179.85 237.041 1181.09 231.489 1181.09 225.205C1181.09 218.922 1179.85 213.37 1177.36 208.548C1174.88 203.726 1171.37 200 1166.84 197.37C1162.45 194.594 1157.26 193.205 1151.27 193.205C1145.42 193.205 1140.23 194.594 1135.7 197.37C1131.31 200 1127.8 203.726 1125.17 208.548C1122.69 213.37 1121.44 218.922 1121.44 225.205C1121.44 231.489 1122.69 237.041 1125.17 241.863C1127.8 246.685 1131.31 250.484 1135.7 253.26C1140.23 255.89 1145.42 257.205 1151.27 257.205ZM1203.67 277.808H1179.55V249.534L1183.72 223.89L1179.55 198.466V120H1203.67V277.808Z" fill="white"/>
<path d="M1277.63 277.808V124.384H1302.85V277.808H1277.63ZM1294.96 277.808V254.795H1375.21V277.808H1294.96Z" fill="white"/>
<path d="M1435.34 280C1425.84 280 1417.21 277.589 1409.46 272.767C1401.86 267.945 1395.8 261.443 1391.26 253.26C1386.88 244.932 1384.69 235.653 1384.69 225.425C1384.69 215.05 1386.88 205.772 1391.26 197.589C1395.8 189.26 1401.86 182.685 1409.46 177.863C1417.21 172.895 1425.84 170.411 1435.34 170.411C1443.38 170.411 1450.47 172.164 1456.61 175.671C1462.9 179.032 1467.87 183.708 1471.52 189.699C1475.18 195.689 1477 202.484 1477 210.082V240.329C1477 247.927 1475.18 254.721 1471.52 260.712C1468.01 266.703 1463.11 271.452 1456.83 274.959C1450.54 278.32 1443.38 280 1435.34 280ZM1439.29 257.205C1448.2 257.205 1455.37 254.21 1460.78 248.219C1466.33 242.228 1469.11 234.557 1469.11 225.205C1469.11 218.922 1467.87 213.37 1465.38 208.548C1462.9 203.726 1459.39 200 1454.86 197.37C1450.47 194.594 1445.28 193.205 1439.29 193.205C1433.44 193.205 1428.25 194.594 1423.72 197.37C1419.33 200 1415.82 203.726 1413.19 208.548C1410.71 213.37 1409.46 218.922 1409.46 225.205C1409.46 231.489 1410.71 237.041 1413.19 241.863C1415.82 246.685 1419.33 250.484 1423.72 253.26C1428.25 255.89 1433.44 257.205 1439.29 257.205ZM1467.57 277.808V249.534L1471.74 223.89L1467.57 198.466V172.603H1491.69V277.808H1467.57Z" fill="white"/>
<path d="M1574.82 280C1566.78 280 1559.62 278.32 1553.33 274.959C1547.04 271.452 1542.07 266.703 1538.42 260.712C1534.91 254.721 1533.16 247.927 1533.16 240.329V210.082C1533.16 202.484 1534.98 195.689 1538.64 189.699C1542.29 183.708 1547.26 179.032 1553.55 175.671C1559.83 172.164 1566.92 170.411 1574.82 170.411C1584.32 170.411 1592.87 172.895 1600.47 177.863C1608.22 182.685 1614.29 189.26 1618.68 197.589C1623.21 205.772 1625.47 215.05 1625.47 225.425C1625.47 235.653 1623.21 244.932 1618.68 253.26C1614.29 261.443 1608.22 267.945 1600.47 272.767C1592.87 277.589 1584.32 280 1574.82 280ZM1518.46 277.808V120H1542.58V198.466L1538.42 223.89L1542.58 249.534V277.808H1518.46ZM1570.87 257.205C1576.72 257.205 1581.84 255.89 1586.22 253.26C1590.75 250.484 1594.26 246.685 1596.75 241.863C1599.38 237.041 1600.69 231.489 1600.69 225.205C1600.69 218.922 1599.38 213.37 1596.75 208.548C1594.26 203.726 1590.75 200 1586.22 197.37C1581.84 194.594 1576.72 193.205 1570.87 193.205C1565.02 193.205 1559.83 194.594 1555.3 197.37C1550.77 200 1547.26 203.726 1544.78 208.548C1542.29 213.37 1541.05 218.922 1541.05 225.205C1541.05 231.489 1542.29 237.041 1544.78 241.863C1547.26 246.685 1550.77 250.484 1555.3 253.26C1559.83 255.89 1565.02 257.205 1570.87 257.205Z" fill="white"/>
<path d="M1680.09 280C1674.24 280 1668.62 279.269 1663.21 277.808C1657.8 276.201 1652.83 274.009 1648.3 271.233C1643.76 268.31 1639.82 264.804 1636.45 260.712L1651.8 245.37C1655.46 249.607 1659.62 252.822 1664.3 255.014C1669.13 257.059 1674.54 258.082 1680.53 258.082C1685.94 258.082 1690.03 257.279 1692.81 255.671C1695.59 254.064 1696.98 251.726 1696.98 248.658C1696.98 245.443 1695.66 242.959 1693.03 241.205C1690.4 239.452 1686.96 237.991 1682.72 236.822C1678.63 235.507 1674.24 234.192 1669.57 232.877C1665.03 231.562 1660.65 229.808 1656.41 227.616C1652.32 225.279 1648.95 222.137 1646.32 218.192C1643.69 214.247 1642.37 209.132 1642.37 202.849C1642.37 196.128 1643.91 190.356 1646.98 185.534C1650.2 180.712 1654.65 176.986 1660.36 174.356C1666.2 171.726 1673.15 170.411 1681.19 170.411C1689.67 170.411 1697.12 171.945 1703.55 175.014C1710.13 177.936 1715.61 182.393 1720 188.384L1704.65 203.726C1701.58 199.927 1698.07 197.078 1694.12 195.178C1690.18 193.279 1685.65 192.329 1680.53 192.329C1675.71 192.329 1671.98 193.059 1669.35 194.521C1666.71 195.982 1665.4 198.1 1665.4 200.877C1665.4 203.799 1666.71 206.064 1669.35 207.671C1671.98 209.279 1675.34 210.667 1679.43 211.836C1683.67 213.005 1688.06 214.32 1692.59 215.781C1697.27 217.096 1701.65 218.995 1705.75 221.479C1709.99 223.817 1713.42 227.032 1716.05 231.123C1718.68 235.068 1720 240.256 1720 246.685C1720 256.913 1716.42 265.023 1709.26 271.014C1702.09 277.005 1692.37 280 1680.09 280Z" fill="white"/>
</svg>
