<svg width="1256" height="336" viewBox="0 0 1256 336" fill="none" xmlns="http://www.w3.org/2000/svg">
<path d="M12 44C12 50.627 6.62742 56 0 56C6.62742 56 12 61.373 12 68C12 61.373 17.3726 56 24 56C17.3726 56 12 50.627 12 44Z" fill="#0C0F12"/>
<path d="M12 156C12 162.627 6.62742 168 0 168C6.62742 168 12 173.373 12 180C12 173.373 17.3726 168 24 168C17.3726 168 12 162.627 12 156Z" fill="#0C0F12"/>
<path d="M12 268C12 274.627 6.62742 280 0 280C6.62742 280 12 285.373 12 292C12 285.373 17.3726 280 24 280C17.3726 280 12 274.627 12 268Z" fill="#0C0F12"/>
<path d="M684 44C684 50.627 678.627 56 672 56C678.627 56 684 61.373 684 68C684 61.373 689.373 56 696 56C689.373 56 684 50.627 684 44Z" fill="#0C0F12"/>
<path d="M684 156C684 162.627 678.627 168 672 168C678.627 168 684 173.373 684 180C684 173.373 689.373 168 696 168C689.373 168 684 162.627 684 156Z" fill="#0C0F12"/>
<path d="M684 268C684 274.627 678.627 280 672 280C678.627 280 684 285.373 684 292C684 285.373 689.373 280 696 280C689.373 280 684 274.627 684 268Z" fill="#0C0F12"/>
<path d="M124 44C124 50.627 118.627 56 112 56C118.627 56 124 61.373 124 68C124 61.373 129.373 56 136 56C129.373 56 124 50.627 124 44Z" fill="#0C0F12"/>
<path d="M124 156C124 162.627 118.627 168 112 168C118.627 168 124 173.373 124 180C124 173.373 129.373 168 136 168C129.373 168 124 162.627 124 156Z" fill="#0C0F12"/>
<path d="M124 268C124 274.627 118.627 280 112 280C118.627 280 124 285.373 124 292C124 285.373 129.373 280 136 280C129.373 280 124 274.627 124 268Z" fill="#0C0F12"/>
<path d="M796 44C796 50.627 790.627 56 784 56C790.627 56 796 61.373 796 68C796 61.373 801.373 56 808 56C801.373 56 796 50.627 796 44Z" fill="#0C0F12"/>
<path d="M796 156C796 162.627 790.627 168 784 168C790.627 168 796 173.373 796 180C796 173.373 801.373 168 808 168C801.373 168 796 162.627 796 156Z" fill="#0C0F12"/>
<path d="M796 268C796 274.627 790.627 280 784 280C790.627 280 796 285.373 796 292C796 285.373 801.373 280 808 280C801.373 280 796 274.627 796 268Z" fill="#0C0F12"/>
<path d="M12 404V-68" stroke="#0C0F12"/>
<path d="M124 404V-68" stroke="#0C0F12"/>
<path d="M236 404V-68" stroke="#0C0F12"/>
<path d="M348 404V-68" stroke="#0C0F12"/>
<path d="M460 404V-68" stroke="#0C0F12"/>
<path d="M572 404V-68" stroke="#0C0F12"/>
<path d="M684 404V-68" stroke="#0C0F12"/>
<path d="M796 404V-68" stroke="#0C0F12"/>
<path d="M908 404V-68" stroke="#0C0F12"/>
<path d="M1020 404V-68" stroke="#0C0F12"/>
<path d="M1132 404V-68" stroke="#0C0F12"/>
<path d="M1244 404V-68" stroke="#0C0F12"/>
<path d="M236 44C236 50.627 230.627 56 224 56C230.627 56 236 61.373 236 68C236 61.373 241.373 56 248 56C241.373 56 236 50.627 236 44Z" fill="#0C0F12"/>
<path d="M236 156C236 162.627 230.627 168 224 168C230.627 168 236 173.373 236 180C236 173.373 241.373 168 248 168C241.373 168 236 162.627 236 156Z" fill="#0C0F12"/>
<path d="M236 268C236 274.627 230.627 280 224 280C230.627 280 236 285.373 236 292C236 285.373 241.373 280 248 280C241.373 280 236 274.627 236 268Z" fill="#0C0F12"/>
<path d="M908 44C908 50.627 902.627 56 896 56C902.627 56 908 61.373 908 68C908 61.373 913.373 56 920 56C913.373 56 908 50.627 908 44Z" fill="#0C0F12"/>
<path d="M908 156C908 162.627 902.627 168 896 168C902.627 168 908 173.373 908 180C908 173.373 913.373 168 920 168C913.373 168 908 162.627 908 156Z" fill="#0C0F12"/>
<path d="M908 268C908 274.627 902.627 280 896 280C902.627 280 908 285.373 908 292C908 285.373 913.373 280 920 280C913.373 280 908 274.627 908 268Z" fill="#0C0F12"/>
<path d="M348 44C348 50.627 342.627 56 336 56C342.627 56 348 61.373 348 68C348 61.373 353.373 56 360 56C353.373 56 348 50.627 348 44Z" fill="#0C0F12"/>
<path d="M348 156C348 162.627 342.627 168 336 168C342.627 168 348 173.373 348 180C348 173.373 353.373 168 360 168C353.373 168 348 162.627 348 156Z" fill="#0C0F12"/>
<path d="M348 268C348 274.627 342.627 280 336 280C342.627 280 348 285.373 348 292C348 285.373 353.373 280 360 280C353.373 280 348 274.627 348 268Z" fill="#0C0F12"/>
<path d="M1020 44C1020 50.627 1014.63 56 1008 56C1014.63 56 1020 61.373 1020 68C1020 61.373 1025.37 56 1032 56C1025.37 56 1020 50.627 1020 44Z" fill="#0C0F12"/>
<path d="M1020 156C1020 162.627 1014.63 168 1008 168C1014.63 168 1020 173.373 1020 180C1020 173.373 1025.37 168 1032 168C1025.37 168 1020 162.627 1020 156Z" fill="#0C0F12"/>
<path d="M1020 268C1020 274.627 1014.63 280 1008 280C1014.63 280 1020 285.373 1020 292C1020 285.373 1025.37 280 1032 280C1025.37 280 1020 274.627 1020 268Z" fill="#0C0F12"/>
<path d="M460 44C460 50.627 454.627 56 448 56C454.627 56 460 61.373 460 68C460 61.373 465.373 56 472 56C465.373 56 460 50.627 460 44Z" fill="#0C0F12"/>
<path d="M460 156C460 162.627 454.627 168 448 168C454.627 168 460 173.373 460 180C460 173.373 465.373 168 472 168C465.373 168 460 162.627 460 156Z" fill="#0C0F12"/>
<path d="M460 268C460 274.627 454.627 280 448 280C454.627 280 460 285.373 460 292C460 285.373 465.373 280 472 280C465.373 280 460 274.627 460 268Z" fill="#0C0F12"/>
<path d="M1132 44C1132 50.627 1126.63 56 1120 56C1126.63 56 1132 61.373 1132 68C1132 61.373 1137.37 56 1144 56C1137.37 56 1132 50.627 1132 44Z" fill="#0C0F12"/>
<path d="M1132 156C1132 162.627 1126.63 168 1120 168C1126.63 168 1132 173.373 1132 180C1132 173.373 1137.37 168 1144 168C1137.37 168 1132 162.627 1132 156Z" fill="#0C0F12"/>
<path d="M1132 268C1132 274.627 1126.63 280 1120 280C1126.63 280 1132 285.373 1132 292C1132 285.373 1137.37 280 1144 280C1137.37 280 1132 274.627 1132 268Z" fill="#0C0F12"/>
<path d="M572 44C572 50.627 566.627 56 560 56C566.627 56 572 61.373 572 68C572 61.373 577.373 56 584 56C577.373 56 572 50.627 572 44Z" fill="#0C0F12"/>
<path d="M572 156C572 162.627 566.627 168 560 168C566.627 168 572 173.373 572 180C572 173.373 577.373 168 584 168C577.373 168 572 162.627 572 156Z" fill="#0C0F12"/>
<path d="M572 268C572 274.627 566.627 280 560 280C566.627 280 572 285.373 572 292C572 285.373 577.373 280 584 280C577.373 280 572 274.627 572 268Z" fill="#0C0F12"/>
<path d="M1244 44C1244 50.627 1238.63 56 1232 56C1238.63 56 1244 61.373 1244 68C1244 61.373 1249.37 56 1256 56C1249.37 56 1244 50.627 1244 44Z" fill="#0C0F12"/>
<path d="M1244 156C1244 162.627 1238.63 168 1232 168C1238.63 168 1244 173.373 1244 180C1244 173.373 1249.37 168 1256 168C1249.37 168 1244 162.627 1244 156Z" fill="#0C0F12"/>
<path d="M1244 268C1244 274.627 1238.63 280 1232 280C1238.63 280 1244 285.373 1244 292C1244 285.373 1249.37 280 1256 280C1249.37 280 1244 274.627 1244 268Z" fill="#0C0F12"/>
<path d="M0 56H1256" stroke="#0C0F12"/>
<path d="M0 168H1256" stroke="#0C0F12"/>
<path d="M0 280H1256" stroke="#0C0F12"/>
<rect y="-68" width="1256" height="472" fill="url(#paint0_linear_8725_2233)"/>
<defs>
<linearGradient id="paint0_linear_8725_2233" x1="0" y1="168" x2="1256" y2="168" gradientUnits="userSpaceOnUse">
<stop stop-color="#06090C"/>
<stop offset="0.1" stop-color="#06090C" stop-opacity="0"/>
<stop offset="0.9" stop-color="#06090C" stop-opacity="0"/>
<stop offset="1" stop-color="#06090C"/>
</linearGradient>
</defs>
</svg>
